<svg width="10885" height="1275" viewBox="0 0 10885 1275" fill="none" xmlns="http://www.w3.org/2000/svg">
    <rect width="10884.5" height="1274.02" fill="#5433EB"
          style="fill:#5433EB;fill:color(display-p3 0.3294 0.2000 0.9216);fill-opacity:1;"/>
    <path d="M3900.63 806.51V464.511H4040.34C4104.38 464.511 4144.64 498.468 4144.64 551.83C4144.64 588.698 4123.78 615.864 4087.88 626.536V628.476C4129.6 636.723 4153.37 667.77 4153.37 711.914C4153.37 769.642 4112.62 806.51 4048.59 806.51H3900.63ZM4038.4 759.455C4071.87 759.455 4091.76 739.565 4091.76 706.578C4091.76 672.621 4071.39 652.732 4038.4 652.732H3960.3V759.455H4038.4ZM4031.12 607.617C4062.66 607.617 4082.55 588.698 4082.55 559.591C4082.55 529.515 4062.66 511.566 4031.12 511.566H3960.3V607.617H4031.12ZM4287.99 813.786C4241.91 813.786 4204.55 785.165 4204.55 719.676V556.681H4261.31V709.974C4261.31 745.387 4279.26 765.276 4308.85 765.276C4343.29 765.276 4362.7 740.535 4362.7 703.668V556.681H4419.94V806.51H4365.12V771.582H4362.7C4348.63 800.203 4322.43 813.786 4287.99 813.786ZM4505 886.552L4552.54 782.255L4453.58 556.681H4517.12L4563.69 674.076C4570.97 693.48 4576.31 709.489 4581.64 729.378H4583.58C4588.43 709.974 4593.77 692.995 4600.56 674.076L4647.13 556.681H4710.68L4568.06 886.552H4505ZM4886.09 806.51L4807.5 556.681H4867.65L4900.64 679.412C4906.95 703.182 4911.8 725.982 4916.16 750.723H4918.11C4922.96 725.497 4927.32 704.638 4934.6 679.412L4969.04 556.681H5027.74L5062.18 679.412C5069.46 705.123 5074.31 726.953 5078.67 750.723H5081.1C5084.98 726.467 5089.83 704.153 5096.14 679.412L5129.13 556.681H5189.76L5110.69 806.51H5051.99L5017.07 682.323C5009.3 655.157 5004.45 633.812 4999.6 608.587H4997.66C4992.33 634.298 4987.48 655.642 4979.71 682.323L4945.27 806.51H4886.09ZM5224.56 806.51V556.681H5281.32V806.51H5224.56ZM5253.18 518.357C5232.81 518.357 5217.77 502.349 5217.77 482.46C5217.77 462.57 5233.29 447.047 5253.18 447.047C5273.56 447.047 5289.08 462.57 5289.08 482.46C5289.08 502.834 5273.56 518.357 5253.18 518.357ZM5426.87 811.361C5386.13 811.361 5360.9 792.442 5360.9 749.752V603.736H5320.64V560.076H5345.86C5359.93 560.076 5364.78 554.74 5364.78 540.672V497.013H5418.14V556.681H5465.2V603.736H5418.14V731.319C5418.14 751.693 5425.42 759.94 5441.91 759.94C5449.19 759.94 5455.98 758.969 5465.2 757.029V805.054C5451.61 809.42 5440.94 811.361 5426.87 811.361ZM5515.91 806.51V455.779H5573.15V589.668H5575.09C5589.65 562.502 5616.81 549.404 5649.8 549.404C5697.34 549.404 5734.69 578.025 5734.69 643.515V806.51H5677.45V653.217C5677.45 617.804 5659.5 597.915 5628.45 597.915C5593.04 597.915 5572.67 622.655 5572.67 659.523V806.51H5515.91Z"
          fill="white" style="fill:white;fill-opacity:1;"/>
    <g clip-path="url(#clip0_4074_375)">
        <path d="M6015.57 634.902C5969.27 624.615 5948.64 620.589 5948.64 602.315C5948.64 585.127 5962.6 576.565 5990.52 576.565C6015.07 576.565 6033.02 587.555 6046.23 609.088C6047.23 610.749 6049.28 611.324 6050.97 610.43L6103.06 583.465C6104.93 582.507 6105.62 580.079 6104.56 578.226C6082.93 539.824 6042.99 518.802 5990.39 518.802C5921.28 518.802 5878.35 553.689 5878.35 609.152C5878.35 668.065 5930.63 682.953 5977 693.24C6023.36 703.528 6044.05 707.553 6044.05 725.828C6044.05 744.102 6028.97 752.728 5998.87 752.728C5971.07 752.728 5950.45 739.693 5937.98 714.39C5937.05 712.537 5934.87 711.77 5933.06 712.729L5881.09 739.118C5879.28 740.077 5878.53 742.313 5879.47 744.23C5900.1 786.721 5942.41 810.619 5998.93 810.619C6070.91 810.619 6114.41 776.306 6114.41 719.118C6114.41 661.931 6061.87 645.318 6015.57 635.03V634.902Z"
              fill="white" style="fill:white;fill-opacity:1;"/>
        <path d="M6294.75 518.802C6265.21 518.802 6239.1 529.536 6220.34 548.642C6219.16 549.792 6217.23 548.961 6217.23 547.3V425.321C6217.23 423.212 6215.61 421.551 6213.55 421.551H6148.37C6146.31 421.551 6144.69 423.212 6144.69 425.321V803.91C6144.69 806.018 6146.31 807.68 6148.37 807.68H6213.55C6215.61 807.68 6217.23 806.018 6217.23 803.91V637.842C6217.23 605.765 6241.22 581.165 6273.56 581.165C6305.91 581.165 6329.34 605.254 6329.34 637.842V803.91C6329.34 806.018 6330.96 807.68 6333.01 807.68H6398.2C6400.26 807.68 6401.88 806.018 6401.88 803.91V637.842C6401.88 568.066 6357.26 518.802 6294.75 518.802Z"
              fill="white" style="fill:white;fill-opacity:1;"/>
        <path d="M6534.11 507.939C6498.72 507.939 6465.56 519.058 6441.76 535.096C6440.14 536.182 6439.58 538.418 6440.57 540.143L6469.3 590.43C6470.36 592.219 6472.61 592.858 6474.35 591.772C6492.42 580.59 6513.11 574.776 6534.24 574.903C6591.13 574.903 6632.95 616.053 6632.95 670.429C6632.95 716.754 6599.48 751.067 6557.05 751.067C6522.46 751.067 6498.47 730.428 6498.47 701.291C6498.47 684.614 6505.38 670.94 6523.39 661.292C6525.26 660.27 6525.95 657.905 6524.83 656.052L6497.72 609.024C6496.85 607.491 6494.98 606.788 6493.29 607.427C6456.96 621.229 6431.48 654.455 6431.48 699.055C6431.48 766.53 6483.88 816.881 6556.98 816.881C6642.36 816.881 6703.74 756.243 6703.74 669.279C6703.74 576.054 6632.32 507.939 6534.11 507.939Z"
              fill="white" style="fill:white;fill-opacity:1;"/>
        <path d="M6894.43 518.227C6861.47 518.227 6831.99 530.75 6810.49 552.731C6809.31 553.945 6807.37 553.05 6807.37 551.389V524.936C6807.37 522.827 6805.75 521.166 6803.7 521.166H6740.2C6738.14 521.166 6736.52 522.827 6736.52 524.936V902.95C6736.52 905.058 6738.14 906.719 6740.2 906.719H6805.38C6807.44 906.719 6809.06 905.058 6809.06 902.95V778.99C6809.06 777.328 6810.99 776.498 6812.17 777.584C6833.61 798.031 6861.96 809.98 6894.43 809.98C6970.9 809.98 7030.53 746.53 7030.53 664.103C7030.53 581.676 6970.83 518.227 6894.43 518.227ZM6882.09 745.955C6838.6 745.955 6805.63 710.492 6805.63 663.592C6805.63 616.692 6838.53 581.229 6882.09 581.229C6925.65 581.229 6958.49 616.117 6958.49 663.592C6958.49 711.067 6926.09 745.955 6882.03 745.955H6882.09Z"
              fill="white" style="fill:white;fill-opacity:1;"/>
    </g>
    <defs>
        <clipPath id="clip0_4074_375">
            <rect width="1152.12" height="485.105" fill="white" style="fill:white;fill-opacity:1;"
                  transform="translate(5878.35 421.551)"/>
        </clipPath>
    </defs>
</svg>
