<?xml version="1.0" encoding="UTF-8" standalone="no"?><!DOCTYPE svg PUBLIC "-//W3C//DTD SVG 1.1//EN"
        "http://www.w3.org/Graphics/SVG/1.1/DTD/svg11.dtd">
<svg width="100%" height="100%" viewBox="0 0 1200 1200" version="1.1" xmlns="http://www.w3.org/2000/svg"
     xml:space="preserve"
     style="fill-rule:evenodd;clip-rule:evenodd;stroke-linejoin:round;stroke-miterlimit:2;">
    <g id="Layer_1-2">
        <path d="M934.979,381.042l-242.417,-243.542l-89.083,-94.792l-3.5,-3.875l-3.5,3.875l-89.083,94.833l-242.417,243.542c-104.75,105 -109.708,274.167 -11.375,384.917c0,0 165.292,201 181.042,218.042l165.208,177.125c0,0 0.125,-0.125 0.167,-0.167c0,0.042 0.167,0.167 0.167,0.167l165.208,-177.125c15.75,-17.042 181.042,-218.042 181.042,-218.042c98.333,-110.75 93.375,-279.917 -11.375,-384.917l-0.083,-0.042Zm-151.792,533.417c-10.125,18.333 -22.708,35.583 -37.333,51.417l-145.833,156.417l-145.833,-156.417c-14.667,-15.833 -27.208,-33.125 -37.333,-51.417c-22.208,-39.083 -33.917,-84 -33.917,-129.708c0,-28.917 4.625,-57.333 13.708,-84.625c12.833,-39.25 34.292,-74.042 64,-103.583l92.75,-93.792l4.875,4.792c38.208,37.875 38.625,99.833 0.958,138.042l-24.583,24.583c-30.583,30.583 -47.375,71.167 -47.375,114.542c0,43.375 15.542,80.083 45,111.708l66.458,66l1.375,1.333l1.375,-1.333l66.458,-66c29.458,-31.625 45,-70.208 45,-111.708c0,-41.5 -16.792,-84 -47.375,-114.542l-24.583,-24.583c-37.667,-38.208 -37.25,-100.167 0.958,-138.042l4.875,-4.792l92.75,93.792c29.708,29.542 51.208,64.333 64,103.583c9.083,27.292 13.708,55.708 13.708,84.625c0,45.708 -11.708,90.583 -33.917,129.708l-0.167,-0Zm-183.208,-280.5c5.667,10.917 12.958,21.25 21.958,30.417l24.583,24.667c25.542,25.458 39.583,59.458 39.583,95.708c0,36.25 -12.958,66.792 -37.667,93.375l-48.458,48.167l-48.458,-48.167c-24.667,-26.583 -37.667,-58.917 -37.667,-93.375c0,-36.208 14,-70.208 39.583,-95.708l24.583,-24.667c9,-9.167 16.292,-19.5 21.958,-30.417Zm158.25,-56.208l-111.292,-112.667l-23.875,23.5c-9.542,9.458 -17.25,20.25 -23.083,31.667c-5.833,-11.458 -13.542,-22.208 -23.083,-31.667l-23.875,-23.5l-111.292,112.667c-31.042,30.792 -53.917,67.125 -68.208,107.792l-12.417,-13.708c-48.792,-54.917 -46.583,-138.208 5.083,-189.625l233.167,-233.458l0,0.292l0.667,-0.667l0.667,0.667l0,-0.292l233.167,233.458c51.667,51.417 53.917,134.708 5.083,189.625l-12.417,13.708c-14.333,-40.667 -37.167,-77 -68.208,-107.792l-0.083,0Zm168.083,170.625l-90.917,105.25c5.417,-22.458 8.375,-45.542 8.375,-68.875c0,-23.333 -2.875,-46.75 -8.375,-69.417l23.333,-25.708c58.292,-65.5 55.583,-164.875 -6.042,-226.25l-252.542,-252.75l-0.167,0.167l-0.167,-0.167l-252.542,252.75c-61.625,61.375 -64.333,160.75 -6.042,226.25l23.333,25.708c-5.5,22.708 -8.375,45.875 -8.375,69.417c0,23.542 2.958,46.417 8.375,68.875l-90.917,-105.25c-89.125,-100.375 -84.583,-253.5 10.208,-348.458l243.208,-243.292l70,-75.625l2.958,-3.25l2.875,3.25l70,75.625l243.208,243.292c94.833,94.958 99.375,248.083 10.208,348.458Z"
              style="fill:#5e604c;fill-rule:nonzero;"/>
    </g>
</svg>