<?xml version="1.0" encoding="UTF-8"?>
<svg id="Layer_2" data-name="Layer 2" xmlns="http://www.w3.org/2000/svg" viewBox="0 0 200.15 269.36">
    <defs>
        <style>
            .cls-1 {
            fill: #fff;
            }
        </style>
    </defs>
    <g id="Layer_1-2" data-name="Layer 1">
        <path class="cls-1"
              d="M180.47,82.13l-58.18-58.45L100.91.93l-.84-.93-.84.93-21.38,22.76-58.18,58.45c-25.14,25.2-26.33,65.8-2.73,92.38,0,0,39.67,48.24,43.45,52.33l39.65,42.51s.03-.03.04-.04c0,.01.04.04.04.04l39.65-42.51c3.78-4.09,43.45-52.33,43.45-52.33,23.6-26.58,22.41-67.18-2.73-92.38ZM144.04,210.15c-2.43,4.4-5.45,8.54-8.96,12.34l-35,37.54-35-37.54c-3.52-3.8-6.53-7.95-8.96-12.34-5.33-9.38-8.14-20.16-8.14-31.13,0-6.94,1.11-13.76,3.29-20.31,3.08-9.42,8.23-17.77,15.36-24.86l22.26-22.51,1.17,1.15c9.17,9.09,9.27,23.96.23,33.13l-5.9,5.9c-7.34,7.34-11.37,17.08-11.37,27.49s3.73,19.22,10.8,26.81l15.95,15.84.33.32.33-.32,15.95-15.84c7.07-7.59,10.8-16.85,10.8-26.81s-4.03-20.16-11.37-27.49l-5.9-5.9c-9.04-9.17-8.94-24.04.23-33.13l1.17-1.15,22.26,22.51c7.13,7.09,12.29,15.44,15.36,24.86,2.18,6.55,3.29,13.37,3.29,20.31,0,10.97-2.81,21.74-8.14,31.13ZM100.07,142.83c1.36,2.62,3.11,5.1,5.27,7.3l5.9,5.92c6.13,6.11,9.5,14.27,9.5,22.97s-3.11,16.03-9.04,22.41l-11.63,11.56-11.63-11.56c-5.92-6.38-9.04-14.14-9.04-22.41,0-8.69,3.36-16.85,9.5-22.97l5.9-5.92c2.16-2.2,3.91-4.68,5.27-7.3ZM138.05,129.34l-26.71-27.04-5.73,5.64c-2.29,2.27-4.14,4.86-5.54,7.6-1.4-2.75-3.25-5.33-5.54-7.6l-5.73-5.64-26.71,27.04c-7.45,7.39-12.94,16.11-16.37,25.87l-2.98-3.29c-11.71-13.18-11.18-33.17,1.22-45.51l55.96-56.03v.07s.16-.16.16-.16l.16.16v-.07s55.96,56.03,55.96,56.03c12.4,12.34,12.94,32.33,1.22,45.51l-2.98,3.29c-3.44-9.76-8.92-18.48-16.37-25.87ZM178.39,170.29l-21.82,25.26c1.3-5.39,2.01-10.93,2.01-16.53s-.69-11.22-2.01-16.66l5.6-6.17c13.99-15.72,13.34-39.57-1.45-54.3l-60.61-60.66-.04.04-.04-.04-60.61,60.66c-14.79,14.73-15.44,38.58-1.45,54.3l5.6,6.17c-1.32,5.45-2.01,11.01-2.01,16.66s.71,11.14,2.01,16.53l-21.82-25.26C.36,146.2,1.45,109.45,24.2,86.66l58.37-58.39,16.8-18.15.71-.78.69.78,16.8,18.15,58.37,58.39c22.76,22.79,23.85,59.54,2.45,83.63Z"/>
    </g>
</svg>